<svg xmlns="http://www.w3.org/2000/svg" width="77" height="73" viewBox="0 0 77 73" fill="none">
    <path d="M20.8592 2.99902C26.1423 2.99902 35.8588 7.82382 38.4696 17.8879C41.0804 7.82382 50.7981 3 56.0812 3C61.3643 3 76.0263 7.4809 73.6916 25.3333C71.5576 42.7757 60.7063 52.5616 38.4708 70C16.2353 52.5616 5.38282 42.7748 3.24887 25.3324C0.9142 7.47991 15.5761 2.99902 20.8592 2.99902Z"
          fill="#F64D4D"/>
    <path d="M38.4696 17.8879L40.8895 18.5157L38.4696 27.8438L36.0497 18.5157L38.4696 17.8879ZM3.24887 25.3324L5.72776 25.0082L5.72911 25.0185L5.73037 25.0288L3.24887 25.3324ZM38.4708 70L40.0136 71.9672C39.1078 72.6776 37.8339 72.6776 36.928 71.9672L38.4708 70ZM73.6916 25.3333L71.2101 25.0297L71.2113 25.0194L71.2127 25.0092L73.6916 25.3333ZM36.0497 18.5157C34.916 14.1454 32.2365 10.8846 29.2039 8.69692C26.1159 6.46923 22.8666 5.49902 20.8592 5.49902V0.499023C24.135 0.499023 28.3854 1.94121 32.1292 4.64195C35.9283 7.38266 39.4124 11.5663 40.8895 17.2601L36.0497 18.5157ZM20.8592 5.49902C18.7187 5.49902 14.3206 6.46461 10.795 9.3939C7.43851 12.1828 4.66865 16.9095 5.72776 25.0082L0.769978 25.6565C-0.505581 15.9028 2.88818 9.46284 7.59971 5.54815C12.1422 1.77388 17.7166 0.499023 20.8592 0.499023V5.49902ZM5.73037 25.0288C7.72064 41.2968 17.6454 50.4903 40.0136 68.0328L36.928 71.9672C14.8252 54.6328 3.045 44.2527 0.767373 25.6359L5.73037 25.0288ZM36.0497 17.2601C37.5268 11.5662 41.0114 7.38275 44.8108 4.6423C48.5549 1.94183 52.8056 0.5 56.0812 0.5V5.5C54.0737 5.5 50.824 6.47007 47.7357 8.69754C44.7029 10.885 42.0232 14.1455 40.8895 18.5157L36.0497 17.2601ZM56.0812 0.5C59.2238 0.5 64.7982 1.77486 69.3407 5.54913C74.0523 9.46382 77.446 15.9037 76.1705 25.6575L71.2127 25.0092C72.2718 16.9105 69.5019 12.1837 66.1454 9.39488C62.6198 6.46559 58.2217 5.5 56.0812 5.5V0.5ZM76.1731 25.6369C73.8954 44.2537 62.1165 54.6328 40.0136 71.9672L36.928 68.0328C59.2962 50.4904 69.2198 41.2978 71.2101 25.0297L76.1731 25.6369Z"
          fill="#F64D4D"/>
</svg>